<svg xmlns="http://www.w3.org/2000/svg" xmlns:xlink="http://www.w3.org/1999/xlink" width="256" zoomAndPan="magnify" viewBox="0 0 192 191.999996" height="256" preserveAspectRatio="xMidYMid meet" version="1.0"><defs><clipPath id="8a9fc29b20"><path d="M 96 0 C 42.980469 0 0 42.980469 0 96 C 0 149.019531 42.980469 192 96 192 C 149.019531 192 192 149.019531 192 96 C 192 42.980469 149.019531 0 96 0 Z M 96 0 " clip-rule="nonzero"/></clipPath><clipPath id="2974d4d0db"><path d="M 69 52 L 118 52 L 118 134 L 69 134 Z M 69 52 " clip-rule="nonzero"/></clipPath><clipPath id="7d9b52d077"><path d="M 26.285156 93.839844 L 93.636719 26.488281 L 165.761719 98.613281 L 98.410156 165.964844 Z M 26.285156 93.839844 " clip-rule="nonzero"/></clipPath><clipPath id="308f6e9682"><path d="M 26.285156 93.839844 L 93.636719 26.488281 L 165.761719 98.613281 L 98.410156 165.964844 Z M 26.285156 93.839844 " clip-rule="nonzero"/></clipPath><clipPath id="34e06a4758"><path d="M 56 27 L 99 27 L 99 100 L 56 100 Z M 56 27 " clip-rule="nonzero"/></clipPath><clipPath id="02dd16d171"><path d="M 26.285156 93.839844 L 93.636719 26.488281 L 165.761719 98.613281 L 98.410156 165.964844 Z M 26.285156 93.839844 " clip-rule="nonzero"/></clipPath><clipPath id="51ac33e180"><path d="M 26.285156 93.839844 L 93.636719 26.488281 L 165.761719 98.613281 L 98.410156 165.964844 Z M 26.285156 93.839844 " clip-rule="nonzero"/></clipPath><clipPath id="56da59ebe7"><path d="M 43.511719 76.683594 L 93.867188 26.328125 L 116.789062 49.25 L 66.433594 99.605469 Z M 43.511719 76.683594 " clip-rule="nonzero"/></clipPath><clipPath id="ea45d3acfb"><path d="M 86 79 L 134 79 L 134 166 L 86 166 Z M 86 79 " clip-rule="nonzero"/></clipPath><clipPath id="22d633db69"><path d="M 26.285156 93.839844 L 93.636719 26.488281 L 165.761719 98.613281 L 98.410156 165.964844 Z M 26.285156 93.839844 " clip-rule="nonzero"/></clipPath><clipPath id="fea0f192e3"><path d="M 26.285156 93.839844 L 93.636719 26.488281 L 165.761719 98.613281 L 98.410156 165.964844 Z M 26.285156 93.839844 " clip-rule="nonzero"/></clipPath><clipPath id="f4a175dc3d"><path d="M 70.207031 137.761719 L 129.191406 78.777344 L 157.105469 106.691406 L 98.121094 165.675781 Z M 70.207031 137.761719 " clip-rule="nonzero"/></clipPath></defs><g clip-path="url(#8a9fc29b20)"><rect x="-19.2" width="230.4" fill="#050a30" y="-19.2" height="230.399995" fill-opacity="1"/></g><g clip-path="url(#2974d4d0db)"><g clip-path="url(#7d9b52d077)"><g clip-path="url(#308f6e9682)"><path fill="#ffffff" d="M 102 87.523438 C 126.808594 68.371094 113.433594 52.308594 113.433594 52.308594 C 113.433594 52.308594 42.429688 102.847656 81.304688 133.03125 C 81.304688 133.03125 65.449219 115.75 102 87.523438 " fill-opacity="1" fill-rule="nonzero"/></g></g></g><g clip-path="url(#34e06a4758)"><g clip-path="url(#02dd16d171)"><g clip-path="url(#51ac33e180)"><g clip-path="url(#56da59ebe7)"><path fill="#ffffff" d="M 84.984375 58.808594 C 106.617188 41.363281 95.121094 27.585938 95.121094 27.585938 C 95.121094 27.585938 32.167969 72.390625 66.636719 99.152344 C 66.636719 99.152344 52.273438 85.183594 84.984375 58.808594 " fill-opacity="1" fill-rule="nonzero"/></g></g></g></g><g clip-path="url(#ea45d3acfb)"><g clip-path="url(#22d633db69)"><g clip-path="url(#fea0f192e3)"><g clip-path="url(#f4a175dc3d)"><path fill="#ffffff" d="M 98.246094 165.546875 C 98.246094 165.546875 85.910156 145.035156 118.816406 117.214844 C 143.265625 96.546875 130.179688 79.808594 130.179688 79.808594 C 130.179688 79.808594 59.609375 133.488281 98.246094 165.546875 " fill-opacity="1" fill-rule="nonzero"/></g></g></g></g></svg>